<?xml version="1.0" encoding="UTF-8" standalone="no"?>
<svg
   width="211mm"
   height="69mm"
   viewBox="0 0 211 69"
   version="1.1"
   xmlns="http://www.w3.org/2000/svg"
   xmlns:svg="http://www.w3.org/2000/svg"><defs><rect
       x="275.37256"
       y="56.326206"
       width="346.71909"
       height="158.96507"
       id="rect3" /></defs><g
     transform="translate(22.859265,-18.13107)"><path
       d="m -9.4690471,50.916589 c 0,9.675867 8.1971867,19.351601 21.3126041,19.351601 11.476048,0 19.673143,-8.063246 19.673143,-17.739006 0,-6.450538 -4.918288,-11.288469 -11.475965,-12.901114 3.278842,1.612645 4.530101,8.274365 4.530101,11.499682 0,4.83784 -4.91833,9.675811 -11.476098,9.675811 -8.1971338,0 -14.7548099,-6.450451 -14.7548099,-14.51364 0,-8.892128 8.0590838,-17.758363 16.0917089,-17.647815 9.122797,0.125547 20.472656,8.509095 22.003345,19.049107 1.639482,11.288454 -4.918227,25.802249 -19.673081,30.640166 -18.0337445,4.83791 -30.362576,-6.45053 -32.002004,-24.189521 -1.639428,-17.738986 12.6405583,-31.860763 29.509736,-33.865374 -6.0403064,0 -14.13887169,1.628279 -19.0122577,4.460642 -9.6763733,5.623816 -16.2024013,15.994642 -16.2024013,27.792056 0,16.126353 13.1153493,30.640023 31.149084,32.252694 C 24.958936,86.394485 39.713796,75.106071 42.992664,60.592376 45.451827,50.916503 41.353239,41.24082 34.795546,34.790271 29.877238,29.952367 20.741369,24.99774 12.410407,26.035035 2.0307865,27.327396 -9.4690471,36.402905 -9.4690471,50.916589 Z"
       style="display:inline;fill:#6366f1;fill-opacity:1;stroke:#5658f3;stroke-width:0.512506;stroke-dasharray:none;stroke-opacity:1" /><text
       xml:space="preserve"
       transform="matrix(0.65669631,0,0,0.65669631,-135.10852,21.383571)"
       style="font-style:normal;font-variant:normal;font-weight:normal;font-stretch:normal;font-size:39.02px;line-height:0;font-family:Montserrat;-inkscape-font-specification:'Montserrat, @wght=400';font-variant-ligatures:normal;font-variant-caps:normal;font-variant-numeric:normal;font-variant-east-asian:normal;font-variation-settings:'wght' 400;text-align:start;writing-mode:lr-tb;direction:ltr;white-space:pre;shape-inside:url(#rect3);display:inline;fill:#000000;stroke:#ffffff;stroke-width:30.2362;stroke-opacity:0;paint-order:stroke fill markers"><tspan
         x="275.37305"
         y="67.801701">MediaMasterr
</tspan></text></g></svg>
